<svg viewBox="0 0 38 11" fill="none" xmlns="http://www.w3.org/2000/svg">
<path d="M19.8646 10.906C20.7346 10.906 21.8366 10.442 28.0426 8.586C33.9586 6.846 37.0326 6.788 37.0326 5.454C37.0326 4.178 34.1906 4.178 28.0426 2.322C21.8366 0.466 20.7346 0.0019986 19.8646 0.0019986C19.1106 0.0019986 18.5886 0.466 18.5886 1.104C18.5886 1.742 18.9946 2.206 18.9946 2.786C18.9946 3.482 18.6466 3.888 17.0226 3.888H2.29056C1.36256 3.888 0.782563 4.41 0.782563 5.454C0.782563 6.498 1.36256 7.02 2.29056 7.02H17.0226C18.6466 7.02 18.9946 7.426 18.9946 8.122C18.9946 8.702 18.5886 9.166 18.5886 9.804C18.5886 10.442 19.1106 10.906 19.8646 10.906Z" fill="#EB2D63"/>
</svg>
