<?xml version="1.0" encoding="utf-8"?>
<!-- Generator: Adobe Illustrator 25.4.1, SVG Export Plug-In . SVG Version: 6.00 Build 0)  -->
<svg version="1.1" id="Artwork" xmlns="http://www.w3.org/2000/svg" xmlns:xlink="http://www.w3.org/1999/xlink" x="0px" y="0px"
	 viewBox="0 0 192 192" style="enable-background:new 0 0 192 192;" xml:space="preserve">
<style type="text/css">
	.st0{fill:#FFFFFF;}
</style>
<path class="st0" d="M96,151.6c-9.8,0-17.1-9.3-25.5-19.1L20.1,75.7C8.3,62,0,52.7,0,47.8c0-4.4,3.4-7.3,8.3-7.3
	c6.4,0,13.2,5.9,32.3,23l50.9,45.1c1.1,1.3,2.7,2,4.4,2c2,0,3.4-1,4.9-2l50.5-45.1c19.1-17.1,26-23,32.3-23c4.9,0,8.3,2.9,8.3,7.3
	c0,4.9-7.8,14.2-20.1,27.9l-50.4,56.8C112.7,142.3,105.8,151.6,96,151.6z"/>
</svg>
