<svg id="Artwork" xmlns="http://www.w3.org/2000/svg" viewBox="0 0 192 192"><path d="M4.64,173.19A7.51,7.51,0,0,1,7,167.53l68-68a4.92,4.92,0,0,0,1.89-3.78c0-1.41-.95-2.36-1.89-3.3l-68-68a6.89,6.89,0,0,1-2.36-5.66c0-6.61,8-14.17,14.17-14.17A7.51,7.51,0,0,1,24.47,7l68,68a4.92,4.92,0,0,0,3.78,1.89c1.41,0,2.36-.95,3.3-1.89l68-68a7.51,7.51,0,0,1,5.66-2.36c5.67,0,14.17,7.56,14.17,14.17A6.89,6.89,0,0,1,185,24.47l-68,68c-.94.94-1.89,1.89-1.89,3.3A4.92,4.92,0,0,0,117,99.54l68,68a7.51,7.51,0,0,1,2.36,5.66c0,6.61-8.5,14.17-14.17,14.17a6.89,6.89,0,0,1-5.66-2.36l-68-68c-.94-.94-1.89-1.89-3.3-1.89A4.92,4.92,0,0,0,92.46,117l-68,68a6.89,6.89,0,0,1-5.66,2.36C13.14,187.36,4.64,180.27,4.64,173.19Z"/></svg>