<svg id="Artwork" xmlns="http://www.w3.org/2000/svg" viewBox="0 0 192 192"><path d="M184.32,152.11H7.68C2.56,152.11,0,156.38,0,163.2c0,7.25,2.56,11.52,7.68,11.52H184.32c5.12,0,7.68-4.27,7.68-11.52C192,156.38,189.44,152.11,184.32,152.11Z"/><path d="M7.68,39.89H184.32c5.12,0,7.68-4.26,7.68-11.52,0-6.82-2.56-11.09-7.68-11.09H7.68C2.56,17.28,0,21.55,0,28.37,0,35.63,2.56,39.89,7.68,39.89Z"/><path d="M184.32,84.69H7.68C2.56,84.69,0,89,0,95.79c0,7.25,2.56,11.52,7.68,11.52H184.32c5.12,0,7.68-4.27,7.68-11.52C192,89,189.44,84.69,184.32,84.69Z"/></svg>