<svg id="Artwork" xmlns="http://www.w3.org/2000/svg" viewBox="0 0 192 192"><path d="M186.82,170.65l-64.11-63.71a67.42,67.42,0,0,0,12.53-39.48C135.24,29.81,105.63.2,68,.2S.72,29.81.72,67.46,30.33,134.72,68,134.72a67.5,67.5,0,0,0,38-11.5l64.32,63.93c3.81,3.38,5.92,4.65,8.46,4.65,5.5,0,12.27-6.77,12.27-12.69A11.73,11.73,0,0,0,186.82,170.65ZM68,112.72c-25,0-44.42-19.88-44.42-45.26S43,22.2,68,22.2s44.41,19.88,44.41,45.26S92.94,112.72,68,112.72Z"/><path d="M151.07,31.08h11.32c1.39,0,2,.6,2,2V46.38c0,2.38,2,3.58,5.37,3.58s5.37-1.2,5.37-3.58V33.07c0-1.39.6-2,2-2h11.32c2.39,0,3.58-2,3.58-5.37,0-3.18-1.19-5.17-3.58-5.17H177.1c-1.39,0-2-.59-2-2V7.23c0-2.38-2-3.58-5.37-3.58s-5.37,1.2-5.37,3.58V18.55c0,1.4-.59,2-2,2H151.07c-2.39,0-3.58,2-3.58,5.17C147.49,29.09,148.68,31.08,151.07,31.08Z"/></svg>