<svg viewBox="0 0 50 50" fill="none" xmlns="http://www.w3.org/2000/svg">
<path fill-rule="evenodd" clip-rule="evenodd" d="M19.6693 37.8928C30.5323 37.8928 39.3385 29.4102 39.3385 18.9464C39.3385 8.48259 30.5323 0 19.6693 0C8.80623 0 0 8.48259 0 18.9464C0 29.4102 8.80623 37.8928 19.6693 37.8928ZM19.6691 32.5745C27.4829 32.5745 33.8172 26.473 33.8172 18.9464C33.8172 11.4198 27.4829 5.3183 19.6691 5.3183C11.8553 5.3183 5.521 11.4198 5.521 18.9464C5.521 26.473 11.8553 32.5745 19.6691 32.5745Z" fill="#460029"/>
<rect width="5.69958" height="23.1084" transform="matrix(-0.720217 0.693749 0.720217 0.693749 33.3569 30.0145)" fill="#460029"/>
</svg>
